<svg width="1070" height="304" viewBox="0 0 1070 304" fill="none" xmlns="http://www.w3.org/2000/svg">
<mask id="mask0_393_4637" style="mask-type:alpha" maskUnits="userSpaceOnUse" x="0" y="0" width="1070" height="304">
<rect width="1070" height="304" fill="#D9D9D9"/>
</mask>
<g mask="url(#mask0_393_4637)">
<path d="M1038.07 0H32.2843C14.4542 0 0 14.4542 0 32.2843V429.63C0 447.46 14.4542 461.914 32.2843 461.914H1038.07C1055.9 461.914 1070.35 447.46 1070.35 429.63V32.2843C1070.35 14.4542 1055.9 0 1038.07 0Z" fill="url(#paint0_linear_393_4637)"/>
<path d="M1035.58 10.5545H34.7679C21.3953 10.5545 10.5547 21.3951 10.5547 34.7677V427.146C10.5547 440.519 21.3953 451.36 34.7679 451.36H1035.58C1048.95 451.36 1059.8 440.519 1059.8 427.146V34.7677C1059.8 21.3951 1048.95 10.5545 1035.58 10.5545Z" fill="url(#paint1_linear_393_4637)" stroke="url(#paint2_linear_393_4637)" stroke-width="5"/>
<path d="M1030.61 22.9716H39.7347C30.4767 22.9716 22.9717 30.4766 22.9717 39.7346V422.18C22.9717 431.438 30.4767 438.943 39.7347 438.943H1030.61C1039.87 438.943 1047.38 431.438 1047.38 422.18V39.7346C1047.38 30.4766 1039.87 22.9716 1030.61 22.9716Z" fill="url(#paint3_linear_393_4637)" stroke="url(#paint4_linear_393_4637)" stroke-width="5"/>
</g>
<defs>
<linearGradient id="paint0_linear_393_4637" x1="535.175" y1="0" x2="535.175" y2="461.914" gradientUnits="userSpaceOnUse">
<stop stop-color="#3C3565"/>
<stop offset="0.0001" stop-color="#222E80"/>
<stop offset="1" stop-color="#4251AB"/>
</linearGradient>
<linearGradient id="paint1_linear_393_4637" x1="535.175" y1="7.45024" x2="535.175" y2="454.464" gradientUnits="userSpaceOnUse">
<stop stop-color="#4355DA"/>
<stop offset="1" stop-color="#7688EC"/>
</linearGradient>
<linearGradient id="paint2_linear_393_4637" x1="535.175" y1="7.45024" x2="535.175" y2="454.464" gradientUnits="userSpaceOnUse">
<stop stop-color="#718BF9"/>
<stop offset="1" stop-color="#4058E3"/>
</linearGradient>
<linearGradient id="paint3_linear_393_4637" x1="535.175" y1="19.8673" x2="535.175" y2="442.047" gradientUnits="userSpaceOnUse">
<stop stop-color="#2C3A95"/>
<stop offset="1" stop-color="#4251AB"/>
</linearGradient>
<linearGradient id="paint4_linear_393_4637" x1="535.175" y1="19.8673" x2="535.175" y2="442.047" gradientUnits="userSpaceOnUse">
<stop stop-color="#212C7E"/>
<stop offset="1" stop-color="#85A4FD"/>
</linearGradient>
</defs>
</svg>
